<svg width="49" height="48" viewBox="0 0 49 48" fill="none" xmlns="http://www.w3.org/2000/svg">
<path d="M20.6667 30L14.5162 36.2274C13.6583 37.096 13.2293 37.5304 12.8606 37.561C12.5407 37.5876 12.2275 37.459 12.0186 37.2153C11.7778 36.9344 11.7778 36.324 11.7778 35.1031V31.9832C11.7778 30.8879 10.8808 30.0954 9.79709 29.9366V29.9366C7.17417 29.5524 5.11424 27.4925 4.73004 24.8696C4.66669 24.4371 4.66669 23.921 4.66669 22.8889V13.6C4.66669 10.2397 4.66669 8.55953 5.32065 7.27606C5.89589 6.14708 6.81377 5.2292 7.94274 4.65396C9.22621 4 10.9064 4 14.2667 4H29.0667C32.427 4 34.1072 4 35.3906 4.65396C36.5196 5.2292 37.4375 6.14708 38.0127 7.27606C38.6667 8.55953 38.6667 10.2397 38.6667 13.6V22M38.6667 44L34.3139 40.9738C33.702 40.5484 33.3961 40.3357 33.0631 40.1849C32.7676 40.051 32.4569 39.9536 32.1378 39.8948C31.7784 39.8286 31.4058 39.8286 30.6605 39.8286H27.0667C24.8265 39.8286 23.7064 39.8286 22.8507 39.3926C22.0981 39.0091 21.4862 38.3972 21.1027 37.6445C20.6667 36.7889 20.6667 35.6688 20.6667 33.4286V28.4C20.6667 26.1598 20.6667 25.0397 21.1027 24.184C21.4862 23.4314 22.0981 22.8195 22.8507 22.436C23.7064 22 24.8265 22 27.0667 22H38.2667C40.5069 22 41.627 22 42.4827 22.436C43.2353 22.8195 43.8472 23.4314 44.2307 24.184C44.6667 25.0397 44.6667 26.1598 44.6667 28.4V33.8286C44.6667 35.6923 44.6667 36.6242 44.3622 37.3593C43.9562 38.3394 43.1775 39.1181 42.1974 39.5241C41.4623 39.8286 40.5305 39.8286 38.6667 39.8286V44Z" stroke="#F6A723" stroke-width="2" stroke-linecap="round" stroke-linejoin="round"/>
</svg>
