<svg width="51" height="48" viewBox="0 0 51 48" fill="none" xmlns="http://www.w3.org/2000/svg">
<path d="M10.9334 30.2091H17.1981C18.0149 30.2091 18.8267 30.3063 19.6185 30.5007L26.2379 32.1093C27.6742 32.4592 29.1704 32.4932 30.6217 32.2113L37.9405 30.7874C39.8739 30.4108 41.6524 29.485 43.0462 28.1292L48.2243 23.0921C49.7031 21.656 49.7031 19.3258 48.2243 17.8873C46.8929 16.5922 44.7847 16.4464 43.2785 17.5447L37.2436 21.9476C36.3793 22.5794 35.3277 22.9195 34.2461 22.9195H28.4186L32.1279 22.9194C34.2187 22.9194 35.9122 21.2719 35.9122 19.2381V18.5019C35.9122 16.8131 34.7307 15.3407 33.0472 14.9324L27.322 13.5401C26.3903 13.3142 25.4361 13.2 24.4769 13.2C22.1614 13.2 17.9699 15.1171 17.9699 15.1171L10.9334 18.0597M1.33337 17.04L1.33337 30.9599C1.33337 32.3041 1.33337 32.9761 1.59496 33.4895C1.82505 33.9411 2.19221 34.3083 2.6438 34.5384C3.15718 34.7999 3.82925 34.7999 5.17337 34.7999H7.09337C8.4375 34.7999 9.10956 34.7999 9.62295 34.5384C10.0745 34.3083 10.4417 33.9411 10.6718 33.4895C10.9334 32.9761 10.9334 32.3041 10.9334 30.9599V17.04C10.9334 15.6958 10.9334 15.0238 10.6718 14.5104C10.4417 14.0588 10.0745 13.6916 9.62295 13.4615C9.10957 13.2 8.4375 13.2 7.09338 13.2H5.17338C3.82925 13.2 3.15719 13.2 2.6438 13.4615C2.19221 13.6916 1.82505 14.0588 1.59496 14.5104C1.33337 15.0238 1.33337 15.6958 1.33337 17.04Z" stroke="#F6A723" stroke-width="2" stroke-linecap="round" stroke-linejoin="round"/>
</svg>
