<svg width="40" height="40" viewBox="0 0 40 40" fill="none" xmlns="http://www.w3.org/2000/svg">
<path d="M35.8333 29.9998L24.7619 19.9998M15.2381 19.9998L4.16672 29.9998M3.33333 11.6665L16.9415 21.1922C18.0435 21.9636 18.5945 22.3493 19.1938 22.4987C19.7232 22.6306 20.2768 22.6306 20.8062 22.4987C21.4055 22.3493 21.9565 21.9636 23.0585 21.1922L36.6667 11.6665M11.3333 33.3332H28.6667C31.4669 33.3332 32.8671 33.3332 33.9366 32.7882C34.8774 32.3088 35.6423 31.5439 36.1217 30.6031C36.6667 29.5336 36.6667 28.1334 36.6667 25.3332V14.6665C36.6667 11.8662 36.6667 10.4661 36.1217 9.39655C35.6423 8.45574 34.8774 7.69084 33.9366 7.21147C32.8671 6.6665 31.4669 6.6665 28.6667 6.6665H11.3333C8.53307 6.6665 7.13293 6.6665 6.06338 7.21147C5.12257 7.69084 4.35766 8.45574 3.8783 9.39655C3.33333 10.4661 3.33333 11.8662 3.33333 14.6665V25.3332C3.33333 28.1334 3.33333 29.5336 3.8783 30.6031C4.35766 31.5439 5.12257 32.3088 6.06338 32.7882C7.13293 33.3332 8.53307 33.3332 11.3333 33.3332Z" stroke="#F6A723" stroke-width="2" stroke-linecap="round" stroke-linejoin="round"/>
</svg>
