<svg width="48" height="48" viewBox="0 0 48 48" fill="none" xmlns="http://www.w3.org/2000/svg">
<path d="M12 30L16 34L25 25M16 16V10.4C16 8.15979 16 7.03969 16.436 6.18404C16.8195 5.43139 17.4314 4.81947 18.184 4.43597C19.0397 4 20.1598 4 22.4 4H37.6C39.8402 4 40.9603 4 41.816 4.43597C42.5686 4.81947 43.1805 5.43139 43.564 6.18404C44 7.03969 44 8.15979 44 10.4V25.6C44 27.8402 44 28.9603 43.564 29.816C43.1805 30.5686 42.5686 31.1805 41.816 31.564C40.9603 32 39.8402 32 37.6 32H32M10.4 44H25.6C27.8402 44 28.9603 44 29.816 43.564C30.5686 43.1805 31.1805 42.5686 31.564 41.816C32 40.9603 32 39.8402 32 37.6V22.4C32 20.1598 32 19.0397 31.564 18.184C31.1805 17.4314 30.5686 16.8195 29.816 16.436C28.9603 16 27.8402 16 25.6 16H10.4C8.15979 16 7.03968 16 6.18404 16.436C5.43139 16.8195 4.81947 17.4314 4.43597 18.184C4 19.0397 4 20.1598 4 22.4V37.6C4 39.8402 4 40.9603 4.43597 41.816C4.81947 42.5686 5.43139 43.1805 6.18404 43.564C7.03968 44 8.15979 44 10.4 44Z" stroke="#F6A723" stroke-width="2" stroke-linecap="round" stroke-linejoin="round"/>
</svg>
